<svg id="chercher" xmlns="http://www.w3.org/2000/svg" width="21.297" height="21.298" viewBox="0 0 21.297 21.298">
  <path id="Tracé_191" data-name="Tracé 191" d="M4.72,145.387l-.741,2.768-2.71.057a10.667,10.667,0,0,1-.078-9.944h0l2.412.442,1.057,2.4a6.355,6.355,0,0,0,.06,4.279Z" transform="translate(0 -132.517)" fill="#fbbb00"/>
  <path id="Tracé_192" data-name="Tracé 192" d="M271.857,208.176a10.645,10.645,0,0,1-3.8,10.294h0l-3.038-.155-.43-2.684a6.346,6.346,0,0,0,2.731-3.241h-5.694v-4.213h10.229Z" transform="translate(-250.745 -199.517)" fill="#518ef8"/>
  <path id="Tracé_193" data-name="Tracé 193" d="M46.555,315.491h0a10.652,10.652,0,0,1-16.046-3.258l3.451-2.825a6.333,6.333,0,0,0,9.126,3.243Z" transform="translate(-29.24 -296.539)" fill="#28b446"/>
  <path id="Tracé_194" data-name="Tracé 194" d="M44.879,2.452l-3.45,2.824a6.332,6.332,0,0,0-9.336,3.316l-3.469-2.84h0a10.651,10.651,0,0,1,16.255-3.3Z" transform="translate(-27.433)" fill="#f14336"/>
</svg>
