<svg xmlns="http://www.w3.org/2000/svg" width="59" height="53.942" viewBox="0 0 59 53.942">
  <g id="Groupe_5109" data-name="Groupe 5109" transform="translate(-232.5 -584.059)">
    <g id="_26_hiker_on_trail" data-name="26_hiker_on_trail" transform="translate(-697.5 -7594.941)">
      <g id="Groupe_5034" data-name="Groupe 5034" transform="translate(930 8180)">
        <g id="Groupe_5033" data-name="Groupe 5033">
          <circle id="Ellipse_316" data-name="Ellipse 316" cx="4.638" cy="4.638" r="4.638" transform="translate(21.235)" fill="none" stroke="#061c33" stroke-linejoin="round" stroke-width="2"/>
          <path id="Tracé_44039" data-name="Tracé 44039" d="M966.71,8233.753l3.71-15.768-7.42-7.42V8205" transform="translate(-932.392 -8181.812)" fill="none" stroke="#061c33" stroke-miterlimit="10" stroke-width="2"/>
          <line id="Ligne_48" data-name="Ligne 48" x2="59" transform="translate(0 51.942)" fill="none" stroke="#061c33" stroke-miterlimit="10" stroke-width="2"/>
          <line id="Ligne_49" data-name="Ligne 49" x1="9" y2="17" transform="translate(19 34.942)" fill="none" stroke="#061c33" stroke-miterlimit="10" stroke-width="2"/>
          <path id="Tracé_44040" data-name="Tracé 44040" d="M961.71,8234.551l1.855-12.985L958,8216" transform="translate(-932.029 -8182.609)" fill="none" stroke="#061c33" stroke-miterlimit="10" stroke-width="2"/>
          <path id="Tracé_44041" data-name="Tracé 44041" d="M958.913,8200.492l9.275,3.711h6.493a1.855,1.855,0,0,0,0-3.711h-5.565L959.84,8194h-3.71a3.71,3.71,0,0,0-3.71,3.71v17.623L945,8232.956" transform="translate(-931.087 -8181.015)" fill="none" stroke="#061c33" stroke-miterlimit="10" stroke-width="2"/>
          <path id="Tracé_44042" data-name="Tracé 44042" d="M949.493,8212.406h-4.638a1.855,1.855,0,0,1-1.855-1.855v-12.059l2.783-2.782v-1.854a1.855,1.855,0,0,1,1.855-1.855h2.783a1.855,1.855,0,0,1,1.855,1.855v3.709" transform="translate(-930.942 -8180.87)" fill="none" stroke="#061c33" stroke-miterlimit="10" stroke-width="2"/>
          <line id="Ligne_50" data-name="Ligne 50" x2="7" transform="translate(12 27.942)" fill="none" stroke="#061c33" stroke-miterlimit="10" stroke-width="2"/>
          <line id="Ligne_51" data-name="Ligne 51" x2="7" transform="translate(12 23.942)" fill="none" stroke="#061c33" stroke-miterlimit="10" stroke-width="2"/>
          <line id="Ligne_52" data-name="Ligne 52" x2="7" transform="translate(12 19.942)" fill="none" stroke="#061c33" stroke-miterlimit="10" stroke-width="2"/>
          <line id="Ligne_53" data-name="Ligne 53" x2="5" transform="translate(16 47.942)" fill="none" stroke="#061c33" stroke-miterlimit="10" stroke-width="2"/>
          <line id="Ligne_54" data-name="Ligne 54" x2="4" transform="translate(31 47.942)" fill="none" stroke="#061c33" stroke-miterlimit="10" stroke-width="2"/>
          <line id="Ligne_55" data-name="Ligne 55" x2="14" transform="translate(21 3.942)" fill="none" stroke="#061c33" stroke-miterlimit="10" stroke-width="2"/>
        </g>
      </g>
    </g>
  </g>
</svg>
