<svg xmlns="http://www.w3.org/2000/svg" width="56" height="57" viewBox="0 0 56 57">
  <g id="Groupe_5108" data-name="Groupe 5108" transform="translate(-84 -581)">
    <g id="Groupe_5038" data-name="Groupe 5038" transform="translate(-1252 -307.826)">
      <line id="Ligne_56" data-name="Ligne 56" x2="56" transform="translate(1336 944.826)" fill="none" stroke="#061c33" stroke-miterlimit="10" stroke-width="2"/>
      <line id="Ligne_57" data-name="Ligne 57" x2="12" transform="translate(1341 940.826)" fill="none" stroke="#061c33" stroke-miterlimit="10" stroke-width="2"/>
      <line id="Ligne_58" data-name="Ligne 58" x2="11" transform="translate(1359 940.826)" fill="none" stroke="#061c33" stroke-miterlimit="10" stroke-width="2"/>
      <line id="Ligne_59" data-name="Ligne 59" x2="11" transform="translate(1375 940.826)" fill="none" stroke="#061c33" stroke-miterlimit="10" stroke-width="2"/>
      <g id="Groupe_5037" data-name="Groupe 5037" transform="translate(1338.611 890)">
        <circle id="Ellipse_317" data-name="Ellipse 317" cx="4.5" cy="4.5" r="4.5" transform="translate(20.389 -0.174)" fill="none" stroke="#061c33" stroke-miterlimit="10" stroke-width="2"/>
        <g id="Groupe_5035" data-name="Groupe 5035" transform="translate(33.94 6.962)">
          <line id="Ligne_60" data-name="Ligne 60" y1="16" transform="translate(7.449 31.864)" fill="none" stroke="#061c33" stroke-miterlimit="10" stroke-width="2"/>
          <circle id="Ellipse_318" data-name="Ellipse 318" cx="3.5" cy="3.5" r="3.5" transform="translate(4.449 -0.136)" fill="none" stroke="#061c33" stroke-miterlimit="10" stroke-width="2"/>
          <path id="Tracé_44043" data-name="Tracé 44043" d="M1378,932h2.611v18.275" transform="translate(-1378 -902.411)" fill="none" stroke="#061c33" stroke-miterlimit="10" stroke-width="2"/>
          <path id="Tracé_44044" data-name="Tracé 44044" d="M1391.573,947.421V929.146h3.481V914.351A4.351,4.351,0,0,0,1390.7,910H1382" transform="translate(-1378.519 -899.557)" fill="none" stroke="#061c33" stroke-miterlimit="10" stroke-width="2"/>
          <line id="Ligne_61" data-name="Ligne 61" y2="2" transform="translate(7.449 12.864)" fill="none" stroke="#061c33" stroke-miterlimit="10" stroke-width="2"/>
        </g>
        <g id="Groupe_5036" data-name="Groupe 5036" transform="translate(0 6.962)">
          <line id="Ligne_62" data-name="Ligne 62" y1="16" transform="translate(8.389 31.864)" fill="none" stroke="#061c33" stroke-miterlimit="10" stroke-width="2"/>
          <path id="Tracé_44045" data-name="Tracé 44045" d="M1357.611,932H1355v18.275" transform="translate(-1341.076 -902.411)" fill="none" stroke="#061c33" stroke-miterlimit="10" stroke-width="2"/>
          <path id="Tracé_44046" data-name="Tracé 44046" d="M1342.481,947.421V929.146H1339V914.351a4.351,4.351,0,0,1,4.351-4.351h8.7" transform="translate(-1339 -899.557)" fill="none" stroke="#061c33" stroke-miterlimit="10" stroke-width="2"/>
          <line id="Ligne_63" data-name="Ligne 63" y2="2" transform="translate(8.389 12.864)" fill="none" stroke="#061c33" stroke-miterlimit="10" stroke-width="2"/>
          <circle id="Ellipse_319" data-name="Ellipse 319" cx="3.5" cy="3.5" r="3.5" transform="translate(5.389 -0.136)" fill="none" stroke="#061c33" stroke-miterlimit="10" stroke-width="2"/>
        </g>
        <path id="Tracé_44047" data-name="Tracé 44047" d="M1357,910" transform="translate(-1341.335 -892.595)" fill="none" stroke="#061c33" stroke-miterlimit="10" stroke-width="2"/>
        <path id="Tracé_44048" data-name="Tracé 44048" d="M1379,910" transform="translate(-1344.19 -892.595)" fill="none" stroke="#061c33" stroke-miterlimit="10" stroke-width="2"/>
        <path id="Tracé_44049" data-name="Tracé 44049" d="M1360.481,946.642V924.886H1357V909.222a5.221,5.221,0,0,1,5.222-5.222h8.7a5.221,5.221,0,0,1,5.222,5.222v15.665h-3.481v21.756" transform="translate(-1341.335 -891.816)" fill="none" stroke="#061c33" stroke-miterlimit="10" stroke-width="2"/>
        <line id="Ligne_64" data-name="Ligne 64" y2="19" transform="translate(25.389 35.826)" fill="none" stroke="#061c33" stroke-miterlimit="10" stroke-width="2"/>
      </g>
      <line id="Ligne_65" data-name="Ligne 65" y2="2" transform="translate(1364 905.826)" fill="none" stroke="#061c33" stroke-miterlimit="10" stroke-width="2"/>
    </g>
  </g>
</svg>
