<svg id="Groupe_4888" data-name="Groupe 4888" xmlns="http://www.w3.org/2000/svg" width="18.364" height="18.365" viewBox="0 0 18.364 18.365">
    <g id="Groupe_4889" data-name="Groupe 4889" transform="translate(0 0.001)">
        <path id="Tracé_471" data-name="Tracé 471" d="M11.937,11a6.431,6.431,0,0,0-2.756.62A6.427,6.427,0,0,0,0,17.428v.918a.918.918,0,0,0,.918.918H17.446a.917.917,0,0,0,.918-.918v-.918A6.436,6.436,0,0,0,11.937,11m-10.1,6.427a4.591,4.591,0,0,1,9.182,0Zm11.018,0a6.409,6.409,0,0,0-1.84-4.5,4.545,4.545,0,0,1,.922-.094,4.6,4.6,0,0,1,4.591,4.591Z" transform="translate(0 -0.9)" fill="#4c616b"/>
        <path id="Tracé_472" data-name="Tracé 472" d="M6.591,9.182a4.571,4.571,0,0,0,2.754-.919,4.591,4.591,0,1,0,0-7.344A4.59,4.59,0,1,0,6.591,9.182M10.57,2.3a2.755,2.755,0,1,1,0,4.58,4.588,4.588,0,0,0,0-4.58M6.591,1.836A2.755,2.755,0,1,1,3.836,4.591,2.758,2.758,0,0,1,6.591,1.836" transform="translate(-0.164 0)" fill="#4c616b"/>
    </g>
</svg>
