<svg xmlns="http://www.w3.org/2000/svg" xmlns:xlink="http://www.w3.org/1999/xlink" width="18" height="20.484" viewBox="0 0 18 20.484">
    <defs>
        <clipPath id="clip-path">
            <rect id="Rectangle_73" data-name="Rectangle 73" width="18" height="20.484" fill="#57cc2e"/>
        </clipPath>
    </defs>
    <g id="Groupe_4883" data-name="Groupe 4883" transform="translate(0 0)">
        <g id="Groupe_4882" data-name="Groupe 4882" transform="translate(0 0)" clip-path="url(#clip-path)">
            <path id="Tracé_468" data-name="Tracé 468" d="M15.367,2.633A9,9,0,1,0,2.637,15.362l4.245,4.246a3.005,3.005,0,0,0,4.242,0l4.244-4.244a9.011,9.011,0,0,0,0-12.73M13.953,13.948,9.709,18.192a1,1,0,0,1-1.413,0L4.051,13.948a7,7,0,1,1,9.9,0" transform="translate(0 0)" fill="#57cc2e"/>
            <path id="Tracé_469" data-name="Tracé 469" d="M9,5a4,4,0,1,0,4,4A4,4,0,0,0,9,5m0,6a2,2,0,1,1,2-2,2,2,0,0,1-2,2" transform="translate(0.001 0.001)" fill="#57cc2e"/>
        </g>
    </g>
</svg>
